<?xml version="1.0" standalone="no"?>
<!DOCTYPE svg PUBLIC "-//W3C//DTD SVG 20010904//EN"
 "http://www.w3.org/TR/2001/REC-SVG-20010904/DTD/svg10.dtd">
<svg version="1.0" xmlns="http://www.w3.org/2000/svg"
 width="4725.000000pt" height="4725.000000pt" viewBox="0 0 4725.000000 4725.000000"
 preserveAspectRatio="xMidYMid meet">
<metadata>
Created by potrace 1.11, written by Peter Selinger 2001-2013
</metadata>
<g transform="translate(0.000000,4725.000000) scale(0.100000,-0.100000)"
fill="#000000" stroke="none">
<path d="M1530 23625 l0 -22095 22095 0 22095 0 0 22095 0 22095 -22095 0
-22095 0 0 -22095z m42940 0 l0 -20845 -20845 0 -20845 0 0 20845 0 20845
20845 0 20845 0 0 -20845z"/>
<path d="M14350 35498 c-73 -15 -173 -48 -205 -69 -16 -10 -39 -23 -50 -28
-52 -25 -174 -146 -246 -246 -98 -135 -189 -353 -244 -585 -26 -114 -65 -401
-74 -563 -12 -198 0 -477 31 -697 11 -80 24 -172 28 -205 8 -54 17 -103 40
-205 24 -111 75 -305 95 -365 102 -303 137 -397 202 -535 19 -41 48 -103 64
-136 23 -49 49 -80 126 -151 85 -78 322 -263 337 -263 3 0 24 -13 48 -28 133
-87 342 -164 489 -180 216 -23 403 26 571 150 315 232 498 672 549 1318 12
149 1 492 -20 625 -5 33 -15 101 -21 150 -12 93 -18 123 -70 340 -37 157 -41
171 -123 405 -80 228 -100 277 -198 475 -42 86 -64 114 -147 200 -219 224
-445 397 -642 491 -201 97 -392 133 -540 102z"/>
<path d="M26870 34569 c0 -13 -4 -103 -10 -199 -5 -96 -14 -276 -20 -400 -6
-124 -15 -315 -20 -425 -6 -110 -14 -306 -20 -435 -9 -219 -15 -358 -41 -1070
-10 -279 -21 -649 -39 -1290 -15 -560 -29 -1039 -39 -1380 -6 -173 -13 -417
-17 -541 -3 -125 -9 -230 -13 -236 -3 -5 -122 -7 -296 -3 -284 5 -709 -1
-1172 -16 -128 -4 -234 -5 -235 -3 -2 2 -5 1345 -8 2984 l-5 2980 -455 0 -455
0 -5 -3055 c-3 -1680 -3 -3539 0 -4130 l5 -1075 75 -3 c62 -2 78 -6 93 -24
l18 -21 662 11 c1118 20 1301 24 1308 28 17 10 353 24 362 15 5 -5 13 -106 18
-223 4 -117 12 -319 18 -448 20 -452 40 -1349 56 -2535 6 -409 18 -1151 34
-2160 6 -330 13 -663 16 -740 3 -77 10 -300 16 -495 5 -195 14 -458 19 -585 5
-126 14 -338 20 -470 12 -292 25 -527 45 -825 9 -124 20 -295 25 -380 14 -219
27 -369 65 -770 9 -91 20 -212 25 -270 14 -151 28 -265 85 -695 9 -66 21 -156
26 -200 22 -173 29 -217 64 -420 49 -277 51 -291 64 -355 18 -92 62 -303 71
-340 10 -37 27 -112 40 -170 7 -35 61 -239 99 -380 34 -125 136 -426 194 -575
47 -121 81 -196 165 -375 15 -32 81 -149 143 -256 82 -139 266 -366 380 -467
183 -164 427 -269 779 -336 213 -40 664 -53 980 -27 107 9 224 21 260 27 36 6
101 15 145 19 44 5 118 16 165 24 47 8 126 22 175 30 102 17 209 39 305 62
100 23 191 44 235 53 22 5 63 14 90 21 94 23 160 38 235 55 82 18 180 43 220
55 24 8 77 23 197 56 32 9 78 22 103 30 54 16 121 35 210 59 36 9 83 23 105
30 22 7 87 27 145 45 58 18 179 57 270 86 91 30 210 68 265 85 55 17 116 37
135 44 34 12 85 29 342 110 119 37 148 55 131 77 -5 7 -17 31 -25 53 -9 22
-27 65 -41 95 -13 30 -46 105 -72 165 -26 61 -55 128 -65 150 -15 35 -37 88
-71 173 -5 12 -13 32 -19 45 -19 44 -190 485 -234 605 -108 289 -138 368 -146
387 -4 11 -13 35 -20 53 -14 36 -39 42 -86 17 -16 -8 -36 -15 -45 -15 -8 0
-19 -4 -25 -8 -5 -5 -67 -30 -139 -56 -71 -26 -141 -52 -155 -57 -29 -12 -112
-40 -195 -64 -33 -10 -78 -24 -100 -31 -22 -7 -67 -20 -100 -29 -33 -10 -78
-23 -100 -30 -44 -14 -100 -26 -215 -49 -81 -16 -192 -38 -282 -56 -31 -6
-119 -15 -195 -21 -76 -5 -178 -12 -228 -15 -112 -8 -474 12 -575 31 -41 8
-120 21 -175 30 -55 9 -134 27 -175 40 -41 12 -102 31 -135 40 -33 9 -78 23
-100 30 -22 7 -52 16 -66 19 -60 13 -475 198 -492 219 -191 241 -358 594 -503
1065 -20 64 -40 131 -44 147 -31 115 -40 153 -64 255 -39 167 -43 186 -65 280
-36 156 -43 185 -51 240 -5 30 -14 82 -20 115 -6 33 -15 85 -20 115 -5 30 -21
120 -35 200 -26 140 -32 180 -54 355 -9 73 -35 268 -60 450 -6 39 -15 115 -20
170 -6 55 -15 143 -21 195 -5 52 -17 165 -25 250 -8 85 -18 173 -21 195 -3 22
-10 99 -15 170 -10 132 -20 275 -39 510 -10 133 -41 614 -59 925 -16 267 -45
883 -56 1195 -30 842 -54 1582 -65 2035 -27 1088 -36 1415 -60 2085 -5 154
-12 388 -16 521 l-6 241 23 6 c13 4 43 7 66 7 23 0 64 4 90 10 26 5 93 14 148
20 112 12 263 32 405 55 52 9 122 19 155 24 33 5 89 14 125 21 236 43 368 68
430 82 25 5 68 14 95 18 28 5 86 16 130 24 44 9 116 23 160 31 44 8 114 22
155 30 41 8 100 19 130 25 30 5 75 14 100 19 25 6 83 17 130 26 47 9 117 23
155 30 39 8 108 21 155 30 147 28 223 43 303 59 43 9 93 16 112 16 62 0 63 5
65 375 0 182 -2 1844 -7 3695 l-8 3365 -549 3 c-433 2 -551 0 -558 -10 -4 -7
-8 -1265 -8 -2795 0 -1530 -4 -2784 -8 -2787 -5 -3 -89 -1 -188 4 -98 6 -300
14 -449 19 -148 6 -333 15 -410 21 -77 6 -228 17 -335 25 -107 9 -276 22 -375
30 -99 9 -192 15 -207 15 -23 0 -28 5 -32 33 -3 17 -8 367 -11 777 -11 1611
-33 3262 -56 4225 -13 579 -8 543 -84 563 -22 6 -64 18 -92 26 -29 9 -77 23
-105 31 -71 21 -132 39 -198 59 -30 10 -71 21 -90 26 -19 5 -60 16 -90 26
-110 33 -212 63 -297 89 -29 8 -77 22 -105 31 -29 9 -70 19 -90 21 -35 5 -38
3 -38 -18z"/>
<path d="M14107 29423 c-4 -3 -7 -31 -7 -61 0 -29 -4 -106 -10 -170 -5 -65
-17 -229 -25 -367 -8 -137 -20 -315 -25 -395 -5 -80 -14 -221 -20 -315 -6 -93
-15 -240 -20 -325 -11 -174 -22 -398 -70 -1415 -6 -121 -15 -312 -20 -425 -12
-242 -25 -582 -45 -1145 -8 -225 -17 -467 -20 -536 -9 -199 -24 -662 -35
-1034 -13 -447 -26 -896 -44 -1520 -9 -280 -18 -595 -21 -700 -16 -615 -26
-963 -35 -1310 -6 -214 -15 -554 -20 -755 -6 -201 -17 -612 -25 -915 -8 -302
-17 -620 -20 -705 -4 -85 -10 -301 -16 -480 -40 -1356 -41 -1404 -91 -2595
-20 -461 -18 -600 10 -720 101 -430 319 -842 607 -1144 75 -79 274 -234 340
-265 22 -11 56 -29 75 -40 19 -12 62 -30 95 -40 33 -10 78 -25 100 -33 50 -19
290 -21 359 -4 69 17 208 86 269 134 164 130 334 401 397 632 4 17 22 77 40
135 l32 105 -6 245 c-3 135 -12 412 -21 615 -35 858 -39 973 -84 2525 -6 184
-13 400 -16 480 -3 80 -10 321 -16 535 -5 215 -14 561 -19 770 -6 209 -15 551
-20 760 -27 1051 -46 1760 -70 2580 -10 344 -22 752 -39 1370 -5 187 -12 399
-16 470 -3 72 -12 319 -20 550 -38 1073 -50 1402 -65 1715 -6 113 -17 354 -25
535 -8 182 -19 420 -25 530 -5 110 -14 304 -20 430 -6 127 -13 257 -16 290 -3
33 -9 134 -14 225 -5 91 -16 273 -25 405 -17 255 -28 441 -45 725 -16 267 -23
322 -40 330 -8 4 -42 15 -75 25 -33 10 -80 24 -105 31 -25 8 -92 27 -150 44
-58 17 -125 36 -150 44 -25 8 -72 21 -105 31 -33 9 -71 20 -85 25 -14 5 -52
16 -85 25 -33 9 -78 22 -100 29 -22 7 -67 21 -100 31 -33 9 -78 23 -100 31
-43 15 -87 18 -98 7z"/>
<path d="M18440 24862 c0 -5 14 -37 31 -73 17 -35 62 -127 99 -204 37 -77 105
-216 150 -310 45 -93 101 -210 125 -260 44 -92 129 -269 275 -570 45 -93 99
-206 120 -250 21 -44 86 -179 145 -300 59 -121 120 -247 135 -280 15 -33 72
-150 125 -260 108 -223 203 -419 275 -570 50 -105 124 -259 282 -585 52 -107
123 -255 158 -328 35 -73 69 -131 74 -129 11 3 56 89 160 308 33 68 110 228
171 354 62 127 128 264 148 305 39 84 155 324 272 565 43 88 99 205 125 260
26 55 82 171 124 258 42 86 110 228 152 315 42 86 96 200 121 252 25 52 91
187 145 300 55 113 117 241 138 285 21 44 77 161 125 260 80 165 119 246 263
545 28 57 48 108 46 112 -7 11 -3984 10 -3984 0z"/>
<path d="M20339 16054 c-50 -104 -115 -238 -144 -299 -29 -60 -96 -200 -150
-310 -53 -110 -114 -236 -135 -280 -21 -44 -77 -161 -125 -260 -48 -99 -111
-229 -140 -290 -51 -106 -108 -224 -277 -575 -44 -91 -102 -210 -128 -265 -51
-106 -144 -299 -280 -580 -45 -93 -101 -210 -125 -260 -73 -152 -178 -372
-270 -560 -123 -252 -128 -267 -113 -277 7 -4 902 -7 1988 -5 1891 2 1975 3
1978 20 2 10 -11 48 -29 85 -18 37 -72 150 -122 252 -49 102 -117 244 -152
315 -34 72 -91 189 -125 260 -34 72 -98 204 -142 295 -44 91 -104 215 -133
275 -61 127 -156 324 -280 579 -47 99 -106 220 -130 270 -65 138 -172 360
-270 561 -48 99 -106 221 -130 270 -24 50 -77 161 -119 248 -42 86 -110 228
-152 315 -42 86 -99 204 -126 261 -80 169 -64 173 -169 -45z"/>
</g>
</svg>
