<?xml version="1.0" standalone="no"?>
<!DOCTYPE svg PUBLIC "-//W3C//DTD SVG 20010904//EN"
 "http://www.w3.org/TR/2001/REC-SVG-20010904/DTD/svg10.dtd">
<svg version="1.0" xmlns="http://www.w3.org/2000/svg"
 width="451.000000pt" height="451.000000pt" viewBox="0 0 451.000000 451.000000"
 preserveAspectRatio="xMidYMid meet">
<metadata>
Created by potrace 1.11, written by Peter Selinger 2001-2013
</metadata>
<g transform="translate(0.000000,451.000000) scale(0.100000,-0.100000)"
fill="#000000" stroke="none">
<path d="M533 4480 c-71 -21 -183 -79 -239 -124 -131 -106 -219 -240 -266
-403 l-22 -78 -1 -1595 c0 -1523 1 -1598 19 -1670 54 -218 196 -399 392 -498
52 -27 155 -61 207 -70 23 -3 755 -7 1627 -7 1520 0 1588 1 1660 19 137 34
293 125 374 216 102 116 176 276 193 415 8 62 7 3102 0 3171 -32 280 -235 527
-509 618 l-77 26 -1648 -1 c-1555 -1 -1651 -2 -1710 -19z"/>
</g>
</svg>
